<svg xmlns="http://www.w3.org/2000/svg" xmlns:xlink="http://www.w3.org/1999/xlink" viewBox="0 0 44 40">
  <defs>
    <style>
      .cls-1, .cls-2 {
        fill: none;
      }

      .cls-1 {
        clip-rule: evenodd;
      }

      .cls-3 {
        clip-path: url(#clip-path);
      }

      .cls-4 {
        clip-path: url(#clip-path-2);
      }

      .cls-5 {
        fill: #007dba;
      }
    </style>
    <clipPath id="clip-path">
      <path id="Path_456" data-name="Path 456" class="cls-1" d="M44,0H34.275V-14.062c0-3.681-1.521-6.193-4.866-6.193a4.908,4.908,0,0,0-4.644,3.33,6.188,6.188,0,0,0-.21,2.221V0H14.922s.124-24.909,0-27.173h9.634v4.265c.569-1.865,3.648-4.526,8.56-4.526,6.1,0,10.884,3.909,10.884,12.325V0ZM5.179-30.572H5.117c-3.1,0-5.117-2.077-5.117-4.71C0-37.966,2.072-40,5.239-40s5.109,2.029,5.171,4.71c0,2.633-2.008,4.718-5.231,4.718Zm-4.069,3.4H9.686V0H1.11V-27.173Z"/>
    </clipPath>
    <clipPath id="clip-path-2">
      <path id="Path_455" data-name="Path 455" class="cls-2" d="M-702,946H346V-305H-702Z"/>
    </clipPath>
  </defs>
  <g id="Group_547" data-name="Group 547" transform="translate(0 40)">
    <g id="Group_546" data-name="Group 546" class="cls-3">
      <g id="Group_545" data-name="Group 545" class="cls-4">
        <path id="Path_454" data-name="Path 454" class="cls-5" d="M-5-45H49V5H-5Z"/>
      </g>
    </g>
  </g>
</svg>
