<svg xmlns="http://www.w3.org/2000/svg" xmlns:xlink="http://www.w3.org/1999/xlink" viewBox="0 0 48 40">
  <defs>
    <style>
      .cls-1, .cls-2 {
        fill: none;
      }

      .cls-1 {
        clip-rule: evenodd;
      }

      .cls-3 {
        clip-path: url(#clip-path);
      }

      .cls-4 {
        clip-path: url(#clip-path-2);
      }

      .cls-5 {
        fill: #00aaec;
      }
    </style>
    <clipPath id="clip-path">
      <path id="Path_464" data-name="Path 464" class="cls-1" d="M48-35.265a19.235,19.235,0,0,1-5.655,1.589,10.076,10.076,0,0,0,4.33-5.585,19.4,19.4,0,0,1-6.257,2.447A9.712,9.712,0,0,0,33.231-40a9.975,9.975,0,0,0-9.844,10.1,10.3,10.3,0,0,0,.254,2.3,27.725,27.725,0,0,1-20.3-10.554,10.281,10.281,0,0,0-1.333,5.082,10.164,10.164,0,0,0,4.381,8.4,9.668,9.668,0,0,1-4.463-1.26v.124a10.039,10.039,0,0,0,7.9,9.9,9.39,9.39,0,0,1-2.595.355,9.566,9.566,0,0,1-1.854-.179,9.885,9.885,0,0,0,9.2,7.009A19.445,19.445,0,0,1,2.35-4.394,19.708,19.708,0,0,1,0-4.533,27.418,27.418,0,0,0,15.1,0C33.211,0,43.115-15.385,43.115-28.73c0-.439-.008-.878-.025-1.309A20.211,20.211,0,0,0,48-35.265L33.231-22.481"/>
    </clipPath>
    <clipPath id="clip-path-2">
      <path id="Path_463" data-name="Path 463" class="cls-2" d="M-300,1047H748V-204H-300Z"/>
    </clipPath>
  </defs>
  <g id="Group_553" data-name="Group 553" transform="translate(0 40)">
    <g id="Group_552" data-name="Group 552" class="cls-3">
      <g id="Group_551" data-name="Group 551" class="cls-4">
        <path id="Path_462" data-name="Path 462" class="cls-5" d="M-5-45H53V5H-5Z"/>
      </g>
    </g>
  </g>
</svg>
